# xmcd CD database file
#
# Track frame offsets:
#	150
#	35659
#	62524
#	87660
#	102720
#	122740
#	157874
#	181211
#	197756
#	236321
#	258841
#
# Disc length: 3616 seconds
#
# Revision: 0
# Processed by: cddbd v1.5.2PL0 Copyright (c) Steve Scherf et al.
# Submitted via: CDex 1.51
#
DISCID=8e0e1e0b
DTITLE=var - the Best of Newport '57 cd1 mps
DYEAR=2007
DGENRE=Jazz
TTITLE0=bourdon street parade
TTITLE1=blues for louis
TTITLE2=basin street blues
TTITLE3=muskrat ramble
TTITLE4=airmail special
TTITLE5=love for sale
TTITLE6=between me and myself
TTITLE7=i never knew
TTITLE8=it dont mean a thing
TTITLE9=blue lou
TTITLE10=moonglow
EXTD=YEAR: 2007
EXTT0=
EXTT1=
EXTT2=
EXTT3=
EXTT4=
EXTT5=
EXTT6=
EXTT7=
EXTT8=
EXTT9=
EXTT10=
PLAYORDER=
